<?xml version="1.0" encoding="UTF-8"?>
<svg width="84px" height="119px" viewBox="0 0 84 119" version="1.1" xmlns="http://www.w3.org/2000/svg" xmlns:xlink="http://www.w3.org/1999/xlink">
    <title>Group 8</title>
    <g id="Page-1" stroke="none" stroke-width="1" fill="none" fill-rule="evenodd">
        <g id="Group-8">
            <path d="M81.1717987,112.880096 L81.1717987,5.5280964 L82.1797987,5.5280964 L82.1797987,4.5920964 L83.1597987,4.5920964 L83.1597987,1.5680964 L82.2517987,1.5680964 L82.2517987,0.5000964 L69.3637987,0.5000964 L69.3637987,1.4370964 L68.2117987,1.4370964 L68.2117987,2.5040964 L49.4197987,2.5040964 L49.4197987,1.4960964 L48.4117987,1.4960964 L48.4117987,0.5000964 L35.5957987,0.5000964 L35.5957987,1.4370964 L34.5157987,1.4370964 L34.5157987,2.5620964 L15.7377987,2.5620964 L15.7377987,1.4960964 L14.7157987,1.4960964 L14.7157987,0.5000964 L1.8277987,0.5000964 L1.8277987,1.4960964 L0.8397987,1.5680964 L0.8397987,4.5200964 L1.8277987,4.5200964 L1.8277987,5.5280964 L2.7637987,5.5280964 L2.7637987,112.952096 L1.8017987,112.952096 L1.8017987,116.912096 L0.8397987,116.912096 L0.8397987,117.860096 L15.7957987,117.860096 L15.7957987,116.840096 L14.7157987,116.840096 L14.7157987,67.2500964 C14.7157987,67.2500964 15.4227987,57.7460964 24.5797987,51.2480964 L26.4517987,51.2480964 C26.4517987,51.2480964 34.5877987,56.3600964 36.4597987,65.1440964 L36.4597987,72.1280964 L37.4677987,72.1280964 L37.4677987,112.812096 L35.5237987,112.812096 L35.5237987,117.860096 L48.4117987,117.860096 L48.4117987,112.880096 L46.4677987,112.880096 L46.4677987,72.1280964 L47.4757987,72.1280964 L47.4757987,65.2160964 L48.4117987,65.2160964 C48.4117987,65.2160964 47.1607987,59.0150964 57.3617987,51.3200964 L59.2837987,51.3200964 C59.2837987,51.3200964 67.8517987,56.7920964 69.2197987,67.1600964 L69.2197987,117.860096 L83.1597987,117.860096 L83.1597987,115.832096 L82.1797987,115.832096 L82.1797987,112.880096 L81.1717987,112.880096 Z M51.5077987,41.3120964 L41.9997987,50.2400964 L32.6127987,41.3120964 L32.6127987,36.4160964 C34.8627987,27.8480964 41.9997987,23.3750964 41.9997987,23.3750964 C49.4867987,28.6400964 51.5077987,36.3440964 51.5077987,36.3440964 L51.5077987,41.3120964 Z" id="Fill-4" fill="#FFFFFE"></path>
            <path d="M81.1717987,112.880096 L81.1717987,5.5280964 L82.1797987,5.5280964 L82.1797987,4.5920964 L83.1597987,4.5920964 L83.1597987,1.5680964 L82.2517987,1.5680964 L82.2517987,0.5000964 L69.3637987,0.5000964 L69.3637987,1.4370964 L68.2117987,1.4370964 L68.2117987,2.5040964 L49.4197987,2.5040964 L49.4197987,1.4960964 L48.4117987,1.4960964 L48.4117987,0.5000964 L35.5957987,0.5000964 L35.5957987,1.4370964 L34.5157987,1.4370964 L34.5157987,2.5620964 L15.7377987,2.5620964 L15.7377987,1.4960964 L14.7157987,1.4960964 L14.7157987,0.5000964 L1.8277987,0.5000964 L1.8277987,1.4960964 L0.8397987,1.5680964 L0.8397987,4.5200964 L1.8277987,4.5200964 L1.8277987,5.5280964 L2.7637987,5.5280964 L2.7637987,112.952096 L1.8017987,112.952096 L1.8017987,116.912096 L0.8397987,116.912096 L0.8397987,117.860096 L15.7957987,117.860096 L15.7957987,116.840096 L14.7157987,116.840096 L14.7157987,67.2500964 C14.7157987,67.2500964 15.4227987,57.7460964 24.5797987,51.2480964 L26.4517987,51.2480964 C26.4517987,51.2480964 34.5877987,56.3600964 36.4597987,65.1440964 L36.4597987,72.1280964 L37.4677987,72.1280964 L37.4677987,112.812096 L35.5237987,112.812096 L35.5237987,117.860096 L48.4117987,117.860096 L48.4117987,112.880096 L46.4677987,112.880096 L46.4677987,72.1280964 L47.4757987,72.1280964 L47.4757987,65.2160964 L48.4117987,65.2160964 C48.4117987,65.2160964 47.1607987,59.0150964 57.3617987,51.3200964 L59.2837987,51.3200964 C59.2837987,51.3200964 67.8517987,56.7920964 69.2197987,67.1600964 L69.2197987,117.860096 L83.1597987,117.860096 L83.1597987,115.832096 L82.1797987,115.832096 L82.1797987,112.880096 L81.1717987,112.880096 Z M51.5077987,41.3120964 L41.9997987,50.2400964 L32.6127987,41.3120964 L32.6127987,36.4160964 C34.8627987,27.8480964 41.9997987,23.3750964 41.9997987,23.3750964 C49.4867987,28.6400964 51.5077987,36.3440964 51.5077987,36.3440964 L51.5077987,41.3120964 Z" id="Stroke-6" stroke="#FFFFFE"></path>
        </g>
    </g>
</svg>
