<?xml version="1.0" encoding="UTF-8"?>
<svg viewBox="0 0 24 108" version="1.1" xmlns="http://www.w3.org/2000/svg" xmlns:xlink="http://www.w3.org/1999/xlink">
    <g  stroke="none" stroke-width="1" fill="none" fill-rule="evenodd">
            <polygon fill="#DF5431" points="23.52 107.24 11.76 96.48 -8.8817842e-15 107.24 -8.8817842e-15 7.10542736e-15 23.52 7.10542736e-15"></polygon>
            <path d="M19.1184955,89.6213019 L19.1184955,69.1393019 L19.3074955,69.1393019 L19.3074955,68.9613019 L19.4924955,68.9613019 L19.4924955,68.3843019 L19.3214955,68.3843019 L19.3214955,68.1803019 L16.8994955,68.1803019 L16.8994955,68.3593019 L16.6834955,68.3593019 L16.6834955,68.5623019 L13.1524955,68.5623019 L13.1524955,68.3703019 L12.9634955,68.3703019 L12.9634955,68.1803019 L10.5554955,68.1803019 L10.5554955,68.3593019 L10.3524955,68.3593019 L10.3524955,68.5733019 L6.8244955,68.5733019 L6.8244955,68.3703019 L6.6324955,68.3703019 L6.6324955,68.1803019 L4.2114955,68.1803019 L4.2114955,68.3703019 L4.0254955,68.3843019 L4.0254955,68.9473019 L4.2114955,68.9473019 L4.2114955,69.1393019 L4.3874955,69.1393019 L4.3874955,89.6353019 L4.2064955,89.6353019 L4.2064955,90.3903019 L4.0254955,90.3903019 L4.0254955,90.5713019 L6.8354955,90.5713019 L6.8354955,90.3773019 L6.6324955,90.3773019 L6.6324955,80.9153019 C6.6324955,80.9153019 6.7654955,79.1023019 8.4854955,77.8623019 L8.8374955,77.8623019 C8.8374955,77.8623019 10.3664955,78.8373019 10.7174955,80.5133019 L10.7174955,81.8463019 L10.9074955,81.8463019 L10.9074955,89.6083019 L10.5424955,89.6083019 L10.5424955,90.5713019 L12.9634955,90.5713019 L12.9634955,89.6213019 L12.5984955,89.6213019 L12.5984955,81.8463019 L12.7874955,81.8463019 L12.7874955,80.5273019 L12.9634955,80.5273019 C12.9634955,80.5273019 12.7284955,79.3443019 14.6454955,77.8763019 L15.0064955,77.8763019 C15.0064955,77.8763019 16.6154955,78.9203019 16.8724955,80.8983019 L16.8724955,90.5713019 L19.4924955,90.5713019 L19.4924955,90.1843019 L19.3074955,90.1843019 L19.3074955,89.6213019 L19.1184955,89.6213019 Z M13.5454955,75.9663019 L11.7584955,77.6703019 L9.9954955,75.9663019 L9.9954955,75.0323019 C10.4174955,73.3983019 11.7584955,72.5443019 11.7584955,72.5443019 C13.1654955,73.5493019 13.5454955,75.0193019 13.5454955,75.0193019 L13.5454955,75.9663019 Z"  fill="#FFFFFE"></path>
    </g>
</svg>
